<mxfile host="app.diagrams.net" modified="2023-08-12T04:36:10.126Z" agent="Mozilla/5.0 (Windows NT 10.0; Win64; x64) AppleWebKit/537.36 (KHTML, like Gecko) Chrome/115.0.0.0 Safari/537.36" etag="zUxeFzNThAGa9CweZ4x0" version="21.6.8" type="github">
  <diagram name="System Diagram" id="REXDehKOPjA3kCP1-Vr5">
    <mxGraphModel dx="1034" dy="525" grid="1" gridSize="10" guides="1" tooltips="1" connect="1" arrows="1" fold="1" page="1" pageScale="1" pageWidth="827" pageHeight="1169" math="0" shadow="0">
      <root>
        <mxCell id="0" />
        <mxCell id="1" parent="0" />
        <mxCell id="bLqRKyoKHCjXw3vhj1Xr-1" value="&lt;h1 style=&quot;box-sizing: border-box; margin: 0px; font-family: Montserrat, &amp;quot;Helvetica Neue&amp;quot;, Helvetica, Arial, sans-serif; font-weight: 400; line-height: 1.1; color: rgb(85, 85, 85); text-align: start; background-color: rgb(255, 255, 255);&quot; class=&quot;hidden-sm hidden-xs&quot;&gt;&lt;font style=&quot;font-size: 12px;&quot;&gt;AHT20 I2C Industrial Grade Temperature and Humidity Sensor;&lt;/font&gt;&lt;br&gt;&lt;/h1&gt;&lt;div&gt;&lt;font style=&quot;font-size: 12px;&quot;&gt;$4.50&lt;br&gt;&lt;/font&gt;&lt;/div&gt;" style="rounded=1;whiteSpace=wrap;html=1;" vertex="1" parent="1">
          <mxGeometry x="175" y="80" width="200" height="70" as="geometry" />
        </mxCell>
        <mxCell id="bLqRKyoKHCjXw3vhj1Xr-3" value="Nand Arduino" style="rounded=1;whiteSpace=wrap;html=1;" vertex="1" parent="1">
          <mxGeometry x="180" y="250" width="190" height="50" as="geometry" />
        </mxCell>
        <mxCell id="bLqRKyoKHCjXw3vhj1Xr-4" value="CAN bus controller" style="rounded=1;whiteSpace=wrap;html=1;" vertex="1" parent="1">
          <mxGeometry x="470" y="76" width="190" height="60" as="geometry" />
        </mxCell>
        <mxCell id="bLqRKyoKHCjXw3vhj1Xr-5" value="2812 RGB&lt;br&gt;x 5" style="rounded=1;whiteSpace=wrap;html=1;" vertex="1" parent="1">
          <mxGeometry x="470" y="243" width="190" height="60" as="geometry" />
        </mxCell>
        <mxCell id="bLqRKyoKHCjXw3vhj1Xr-6" value="FFT Processor" style="rounded=1;whiteSpace=wrap;html=1;" vertex="1" parent="1">
          <mxGeometry x="215" y="420" width="120" height="60" as="geometry" />
        </mxCell>
        <mxCell id="bLqRKyoKHCjXw3vhj1Xr-7" value="160khz ADC&lt;br&gt;Converter" style="rounded=1;whiteSpace=wrap;html=1;" vertex="1" parent="1">
          <mxGeometry x="510" y="420" width="120" height="60" as="geometry" />
        </mxCell>
        <mxCell id="bLqRKyoKHCjXw3vhj1Xr-8" value="Band pass filter&lt;br&gt;25khz to 160khz" style="rounded=1;whiteSpace=wrap;html=1;" vertex="1" parent="1">
          <mxGeometry x="509" y="570" width="120" height="60" as="geometry" />
        </mxCell>
        <mxCell id="bLqRKyoKHCjXw3vhj1Xr-10" value="&lt;h1&gt;See&lt;/h1&gt;&lt;p&gt;https://s7d9.scene7.com/is/content/minesafetyappliances/UltraSonic%20Gas%20Leak%20Detection%20White%20Paper%20-%20EN.&lt;/p&gt;&lt;p&gt;https://cdn-learn.adafruit.com/downloads/pdf/fft-fun-with-fourier-transforms.pdf&lt;br&gt;&lt;/p&gt;" style="text;html=1;strokeColor=none;fillColor=none;spacing=5;spacingTop=-20;whiteSpace=wrap;overflow=hidden;rounded=0;" vertex="1" parent="1">
          <mxGeometry x="109" y="640" width="610" height="120" as="geometry" />
        </mxCell>
        <mxCell id="bLqRKyoKHCjXw3vhj1Xr-11" value="" style="endArrow=none;html=1;rounded=0;exitX=1;exitY=0.5;exitDx=0;exitDy=0;entryX=0;entryY=0.5;entryDx=0;entryDy=0;" edge="1" parent="1" source="bLqRKyoKHCjXw3vhj1Xr-6" target="bLqRKyoKHCjXw3vhj1Xr-7">
          <mxGeometry width="50" height="50" relative="1" as="geometry">
            <mxPoint x="390" y="400" as="sourcePoint" />
            <mxPoint x="440" y="350" as="targetPoint" />
          </mxGeometry>
        </mxCell>
        <mxCell id="bLqRKyoKHCjXw3vhj1Xr-12" value="" style="endArrow=none;html=1;rounded=0;exitX=0.5;exitY=0;exitDx=0;exitDy=0;entryX=0.5;entryY=1;entryDx=0;entryDy=0;" edge="1" parent="1" source="bLqRKyoKHCjXw3vhj1Xr-8" target="bLqRKyoKHCjXw3vhj1Xr-7">
          <mxGeometry width="50" height="50" relative="1" as="geometry">
            <mxPoint x="390" y="400" as="sourcePoint" />
            <mxPoint x="440" y="350" as="targetPoint" />
          </mxGeometry>
        </mxCell>
        <mxCell id="bLqRKyoKHCjXw3vhj1Xr-13" value="" style="endArrow=none;html=1;rounded=0;entryX=0.5;entryY=1;entryDx=0;entryDy=0;exitX=0.5;exitY=0;exitDx=0;exitDy=0;" edge="1" parent="1" source="bLqRKyoKHCjXw3vhj1Xr-6" target="bLqRKyoKHCjXw3vhj1Xr-3">
          <mxGeometry width="50" height="50" relative="1" as="geometry">
            <mxPoint x="390" y="400" as="sourcePoint" />
            <mxPoint x="440" y="350" as="targetPoint" />
          </mxGeometry>
        </mxCell>
        <mxCell id="bLqRKyoKHCjXw3vhj1Xr-14" value="" style="endArrow=none;html=1;rounded=0;exitX=1;exitY=0.5;exitDx=0;exitDy=0;entryX=0;entryY=0.5;entryDx=0;entryDy=0;" edge="1" parent="1" source="bLqRKyoKHCjXw3vhj1Xr-3" target="bLqRKyoKHCjXw3vhj1Xr-5">
          <mxGeometry width="50" height="50" relative="1" as="geometry">
            <mxPoint x="400" y="350" as="sourcePoint" />
            <mxPoint x="450" y="300" as="targetPoint" />
          </mxGeometry>
        </mxCell>
        <mxCell id="bLqRKyoKHCjXw3vhj1Xr-16" value="" style="endArrow=none;html=1;rounded=0;exitX=0.5;exitY=0;exitDx=0;exitDy=0;entryX=0.5;entryY=1;entryDx=0;entryDy=0;" edge="1" parent="1" source="bLqRKyoKHCjXw3vhj1Xr-3" target="bLqRKyoKHCjXw3vhj1Xr-1">
          <mxGeometry width="50" height="50" relative="1" as="geometry">
            <mxPoint x="390" y="200" as="sourcePoint" />
            <mxPoint x="440" y="150" as="targetPoint" />
          </mxGeometry>
        </mxCell>
        <mxCell id="bLqRKyoKHCjXw3vhj1Xr-17" value="" style="endArrow=none;html=1;rounded=0;exitX=1;exitY=0.5;exitDx=0;exitDy=0;entryX=0.011;entryY=0.617;entryDx=0;entryDy=0;entryPerimeter=0;" edge="1" parent="1" source="bLqRKyoKHCjXw3vhj1Xr-1" target="bLqRKyoKHCjXw3vhj1Xr-4">
          <mxGeometry width="50" height="50" relative="1" as="geometry">
            <mxPoint x="430" y="210" as="sourcePoint" />
            <mxPoint x="480" y="160" as="targetPoint" />
          </mxGeometry>
        </mxCell>
      </root>
    </mxGraphModel>
  </diagram>
</mxfile>
